<mxfile host="65bd71144e">
    <diagram id="6hGFLwfOUW9BJ-s0fimq" name="Page-1">
        <mxGraphModel dx="412" dy="341" grid="1" gridSize="10" guides="1" tooltips="1" connect="1" arrows="1" fold="1" page="1" pageScale="1" pageWidth="827" pageHeight="1169" background="#283618" math="0" shadow="0">
            <root>
                <mxCell id="0"/>
                <mxCell id="1" parent="0"/>
                <mxCell id="111" value="user" style="swimlane;childLayout=stackLayout;horizontal=1;startSize=30;horizontalStack=0;rounded=1;fontSize=14;fontStyle=0;strokeWidth=2;resizeParent=0;resizeLast=1;shadow=0;dashed=0;align=center;arcSize=24;fillColor=#BC6C25;strokeColor=#DDA15E;fontColor=#FEFAE0;" parent="1" vertex="1">
                    <mxGeometry x="120" y="60" width="160" height="100" as="geometry"/>
                </mxCell>
                <mxCell id="112" value="nick_name&#10;email&#10;password&#10;image" style="align=left;strokeColor=none;fillColor=none;spacingLeft=4;fontSize=12;verticalAlign=top;resizable=0;rotatable=0;part=1;fontColor=#FEFAE0;" parent="111" vertex="1">
                    <mxGeometry y="30" width="160" height="70" as="geometry"/>
                </mxCell>
                <mxCell id="117" value="questionnaire" style="swimlane;childLayout=stackLayout;horizontal=1;startSize=30;horizontalStack=0;rounded=1;fontSize=14;fontStyle=0;strokeWidth=2;resizeParent=0;resizeLast=1;shadow=0;dashed=0;align=center;fillColor=#BC6C25;strokeColor=#DDA15E;fontColor=#FEFAE0;" parent="1" vertex="1">
                    <mxGeometry x="120" y="250" width="160" height="140" as="geometry"/>
                </mxCell>
                <mxCell id="118" value="user_id&#10;age&#10;gender&#10;contents_of_consultation&#10;medical_history ?&#10;case_image ?&#10;pregnant ?" style="align=left;strokeColor=none;fillColor=none;spacingLeft=4;fontSize=12;verticalAlign=top;resizable=0;rotatable=0;part=1;fontColor=#FEFAE0;" parent="117" vertex="1">
                    <mxGeometry y="30" width="160" height="110" as="geometry"/>
                </mxCell>
                <mxCell id="121" value="message" style="swimlane;childLayout=stackLayout;horizontal=1;startSize=30;horizontalStack=0;rounded=1;fontSize=14;fontStyle=0;strokeWidth=2;resizeParent=0;resizeLast=1;shadow=0;dashed=0;align=center;fillColor=#BC6C25;strokeColor=#DDA15E;fontColor=#FEFAE0;" parent="1" vertex="1">
                    <mxGeometry x="400" y="270" width="160" height="120" as="geometry"/>
                </mxCell>
                <mxCell id="122" value="content&#10;user_id&#10;nurse_room_id&#10;quetionnaire_id&#10;create_date_time&#10;" style="align=left;strokeColor=none;fillColor=none;spacingLeft=4;fontSize=12;verticalAlign=top;resizable=0;rotatable=0;part=1;fontColor=#FEFAE0;fontStyle=0" parent="121" vertex="1">
                    <mxGeometry y="30" width="160" height="90" as="geometry"/>
                </mxCell>
                <mxCell id="129" value="" style="edgeStyle=entityRelationEdgeStyle;fontSize=12;html=1;endArrow=ERmandOne;startArrow=ERmandOne;entryX=0.994;entryY=0.136;entryDx=0;entryDy=0;entryPerimeter=0;strokeColor=#DDA15E;fontColor=#FEFAE0;labelBackgroundColor=#283618;exitX=0;exitY=0.25;exitDx=0;exitDy=0;" parent="1" source="121" target="117" edge="1">
                    <mxGeometry width="100" height="100" relative="1" as="geometry">
                        <mxPoint x="110" y="98" as="sourcePoint"/>
                        <mxPoint x="400" y="430" as="targetPoint"/>
                    </mxGeometry>
                </mxCell>
                <mxCell id="133" value="" style="edgeStyle=entityRelationEdgeStyle;fontSize=12;html=1;endArrow=ERzeroToMany;startArrow=ERmandOne;strokeColor=#DDA15E;fontColor=#FEFAE0;labelBackgroundColor=#283618;entryX=1;entryY=0.2;entryDx=0;entryDy=0;entryPerimeter=0;exitX=1;exitY=0.5;exitDx=0;exitDy=0;" parent="1" source="141" target="121" edge="1">
                    <mxGeometry width="100" height="100" relative="1" as="geometry">
                        <mxPoint x="600" y="110" as="sourcePoint"/>
                        <mxPoint x="284" y="260" as="targetPoint"/>
                    </mxGeometry>
                </mxCell>
                <mxCell id="140" value="nurse_room" style="swimlane;childLayout=stackLayout;horizontal=1;startSize=30;horizontalStack=0;rounded=1;fontSize=14;fontStyle=0;strokeWidth=2;resizeParent=0;resizeLast=1;shadow=0;dashed=0;align=center;arcSize=24;fillColor=#BC6C25;strokeColor=#DDA15E;fontColor=#FEFAE0;" parent="1" vertex="1">
                    <mxGeometry x="400" y="60" width="160" height="110" as="geometry"/>
                </mxCell>
                <mxCell id="141" value="user_id&#10;real_name&#10;years_of_experience&#10;field_of_expertise&#10;sub_qualification ?&#10;" style="align=left;strokeColor=none;fillColor=none;spacingLeft=4;fontSize=12;verticalAlign=top;resizable=0;rotatable=0;part=1;fontColor=#FEFAE0;" parent="140" vertex="1">
                    <mxGeometry y="30" width="160" height="80" as="geometry"/>
                </mxCell>
                <mxCell id="142" value="" style="edgeStyle=entityRelationEdgeStyle;fontSize=12;html=1;endArrow=ERmany;startArrow=ERmany;entryX=-0.012;entryY=0.192;entryDx=0;entryDy=0;entryPerimeter=0;strokeColor=#DDA15E;" parent="1" target="140" edge="1">
                    <mxGeometry width="100" height="100" relative="1" as="geometry">
                        <mxPoint x="280" y="81" as="sourcePoint"/>
                        <mxPoint x="490" y="240" as="targetPoint"/>
                    </mxGeometry>
                </mxCell>
            </root>
        </mxGraphModel>
    </diagram>
</mxfile>